<mxfile host="app.diagrams.net" modified="2023-04-07T21:38:31.667Z" agent="Mozilla/5.0 (Windows NT 10.0; Win64; x64) AppleWebKit/537.36 (KHTML, like Gecko) Chrome/111.0.0.0 Safari/537.36" etag="iXLKI-XHXl_06xbcZcVY" version="21.1.5" type="device">
  <diagram name="Page-1" id="5f0bae14-7c28-e335-631c-24af17079c00">
    <mxGraphModel dx="880" dy="444" grid="1" gridSize="10" guides="1" tooltips="1" connect="1" arrows="1" fold="1" page="1" pageScale="1" pageWidth="1100" pageHeight="850" background="#ffffff" math="0" shadow="0">
      <root>
        <mxCell id="0" />
        <mxCell id="1" parent="0" />
        <mxCell id="Kx1ofww-JZRXx2dhc7a3-5" value="bkn-eureka-server [8761]" style="rounded=0;whiteSpace=wrap;html=1;" parent="1" vertex="1">
          <mxGeometry x="620" y="90" width="175" height="30" as="geometry" />
        </mxCell>
        <mxCell id="Kx1ofww-JZRXx2dhc7a3-22" value="" style="group" parent="1" vertex="1" connectable="0">
          <mxGeometry x="110" y="190" width="730" height="430" as="geometry" />
        </mxCell>
        <mxCell id="Kx1ofww-JZRXx2dhc7a3-11" value="" style="group" parent="Kx1ofww-JZRXx2dhc7a3-22" vertex="1" connectable="0">
          <mxGeometry x="145" y="-50" width="440" height="328.64864864864865" as="geometry" />
        </mxCell>
        <mxCell id="Kx1ofww-JZRXx2dhc7a3-4" value="" style="group" parent="Kx1ofww-JZRXx2dhc7a3-11" vertex="1" connectable="0">
          <mxGeometry x="23.16" y="58.65" width="416.84" height="251.35" as="geometry" />
        </mxCell>
        <mxCell id="Kx1ofww-JZRXx2dhc7a3-2" value="" style="rounded=1;whiteSpace=wrap;html=1;" parent="Kx1ofww-JZRXx2dhc7a3-4" vertex="1">
          <mxGeometry y="11.64166869572275" width="416.84" height="139.70002434867303" as="geometry" />
        </mxCell>
        <mxCell id="Kx1ofww-JZRXx2dhc7a3-13" value="" style="group" parent="Kx1ofww-JZRXx2dhc7a3-4" vertex="1" connectable="0">
          <mxGeometry width="416.84" height="251.35" as="geometry" />
        </mxCell>
        <mxCell id="Kx1ofww-JZRXx2dhc7a3-14" value="" style="group" parent="Kx1ofww-JZRXx2dhc7a3-13" vertex="1" connectable="0">
          <mxGeometry width="416.84" height="151.34169304439575" as="geometry" />
        </mxCell>
        <mxCell id="Kx1ofww-JZRXx2dhc7a3-15" value="" style="rounded=1;whiteSpace=wrap;html=1;" parent="Kx1ofww-JZRXx2dhc7a3-14" vertex="1">
          <mxGeometry y="11.64166869572275" width="416.84" height="139.700024348673" as="geometry" />
        </mxCell>
        <mxCell id="Kx1ofww-JZRXx2dhc7a3-16" value="bkn-api-gateway-zuul [8765]" style="rounded=0;whiteSpace=wrap;html=1;" parent="Kx1ofww-JZRXx2dhc7a3-14" vertex="1">
          <mxGeometry x="137.04" width="142.75" height="40" as="geometry" />
        </mxCell>
        <mxCell id="Kx1ofww-JZRXx2dhc7a3-31" value="bkn-user" style="rounded=0;whiteSpace=wrap;html=1;" parent="Kx1ofww-JZRXx2dhc7a3-14" vertex="1">
          <mxGeometry x="17.130410958904108" y="104.77501826150475" width="125.62301369863015" height="17.462503043584125" as="geometry" />
        </mxCell>
        <mxCell id="Kx1ofww-JZRXx2dhc7a3-39" value="bkn-booking" style="rounded=0;whiteSpace=wrap;html=1;" parent="Kx1ofww-JZRXx2dhc7a3-14" vertex="1">
          <mxGeometry x="260" y="104.78" width="130" height="17.46" as="geometry" />
        </mxCell>
        <mxCell id="Kx1ofww-JZRXx2dhc7a3-41" value="bkn-db-booking-pg [5432]" style="shape=cylinder3;whiteSpace=wrap;html=1;boundedLbl=1;backgroundOutline=1;size=15;" parent="Kx1ofww-JZRXx2dhc7a3-13" vertex="1">
          <mxGeometry x="299.99848484848485" y="165.89508703703706" width="89.99954545454545" height="65.45491296296296" as="geometry" />
        </mxCell>
        <mxCell id="Kx1ofww-JZRXx2dhc7a3-43" value="" style="endArrow=classic;html=1;entryX=0.391;entryY=0.007;entryDx=0;entryDy=0;entryPerimeter=0;exitX=0.5;exitY=1;exitDx=0;exitDy=0;" parent="Kx1ofww-JZRXx2dhc7a3-13" source="Kx1ofww-JZRXx2dhc7a3-39" target="Kx1ofww-JZRXx2dhc7a3-41" edge="1">
          <mxGeometry width="50" height="50" relative="1" as="geometry">
            <mxPoint x="234.1156164383561" y="130.96877282688095" as="sourcePoint" />
            <mxPoint x="205.56493150684926" y="177.53544760977195" as="targetPoint" />
            <Array as="points" />
          </mxGeometry>
        </mxCell>
        <mxCell id="Kx1ofww-JZRXx2dhc7a3-32" value="bkn-db-user-pg [5433]" style="shape=cylinder3;whiteSpace=wrap;html=1;boundedLbl=1;backgroundOutline=1;size=15;" parent="Kx1ofww-JZRXx2dhc7a3-13" vertex="1">
          <mxGeometry x="19.99989898989899" y="165.89508703703706" width="89.99954545454545" height="65.45491296296296" as="geometry" />
        </mxCell>
        <mxCell id="Kx1ofww-JZRXx2dhc7a3-36" value="" style="endArrow=classic;html=1;entryX=0.5;entryY=0;entryDx=0;entryDy=0;entryPerimeter=0;exitX=0.5;exitY=1;exitDx=0;exitDy=0;" parent="Kx1ofww-JZRXx2dhc7a3-13" source="Kx1ofww-JZRXx2dhc7a3-31" target="Kx1ofww-JZRXx2dhc7a3-32" edge="1">
          <mxGeometry width="50" height="50" relative="1" as="geometry">
            <mxPoint x="165.5939726027397" y="151.34169304439575" as="sourcePoint" />
            <mxPoint x="194.1446575342466" y="122.23752130508889" as="targetPoint" />
          </mxGeometry>
        </mxCell>
        <mxCell id="Kx1ofww-JZRXx2dhc7a3-8" value="bkn-config-server [8888]" style="rounded=0;whiteSpace=wrap;html=1;" parent="Kx1ofww-JZRXx2dhc7a3-13" vertex="1">
          <mxGeometry x="133.41999999999996" y="211.35" width="150" height="40" as="geometry" />
        </mxCell>
        <mxCell id="Kx1ofww-JZRXx2dhc7a3-49" value="" style="endArrow=none;html=1;entryX=0.5;entryY=1;entryDx=0;entryDy=0;" parent="Kx1ofww-JZRXx2dhc7a3-13" source="Kx1ofww-JZRXx2dhc7a3-8" target="Kx1ofww-JZRXx2dhc7a3-15" edge="1">
          <mxGeometry width="50" height="50" relative="1" as="geometry">
            <mxPoint x="111.83999999999997" y="321.35" as="sourcePoint" />
            <mxPoint x="161.83999999999997" y="271.35" as="targetPoint" />
          </mxGeometry>
        </mxCell>
        <mxCell id="2DSR_ZhehVJ-FzgJWjfp-3" value="" style="endArrow=classic;startArrow=classic;html=1;rounded=0;" edge="1" parent="Kx1ofww-JZRXx2dhc7a3-11">
          <mxGeometry width="50" height="50" relative="1" as="geometry">
            <mxPoint x="225" y="50" as="sourcePoint" />
            <mxPoint x="225" y="-30" as="targetPoint" />
          </mxGeometry>
        </mxCell>
        <mxCell id="2DSR_ZhehVJ-FzgJWjfp-4" value="" style="endArrow=classic;startArrow=classic;html=1;rounded=0;" edge="1" parent="Kx1ofww-JZRXx2dhc7a3-11">
          <mxGeometry width="50" height="50" relative="1" as="geometry">
            <mxPoint x="325" y="50" as="sourcePoint" />
            <mxPoint x="385" y="-10" as="targetPoint" />
          </mxGeometry>
        </mxCell>
        <mxCell id="Kx1ofww-JZRXx2dhc7a3-9" value="git-repository" style="rounded=0;whiteSpace=wrap;html=1;" parent="Kx1ofww-JZRXx2dhc7a3-22" vertex="1">
          <mxGeometry x="309.87" y="310" width="133.42" height="40" as="geometry" />
        </mxCell>
        <mxCell id="Kx1ofww-JZRXx2dhc7a3-12" value="" style="endArrow=classic;startArrow=classic;html=1;entryX=0.5;entryY=1;entryDx=0;entryDy=0;exitX=0.5;exitY=0;exitDx=0;exitDy=0;" parent="Kx1ofww-JZRXx2dhc7a3-22" source="Kx1ofww-JZRXx2dhc7a3-9" target="Kx1ofww-JZRXx2dhc7a3-8" edge="1">
          <mxGeometry width="50" height="50" relative="1" as="geometry">
            <mxPoint x="355" y="470" as="sourcePoint" />
            <mxPoint x="230" y="380" as="targetPoint" />
          </mxGeometry>
        </mxCell>
        <mxCell id="Kx1ofww-JZRXx2dhc7a3-50" value="network: bkn-net" style="rounded=1;whiteSpace=wrap;html=1;" parent="1" vertex="1">
          <mxGeometry x="180" y="90" width="120" height="30" as="geometry" />
        </mxCell>
        <mxCell id="2DSR_ZhehVJ-FzgJWjfp-1" value="bkn-web [9000]" style="rounded=0;whiteSpace=wrap;html=1;" vertex="1" parent="1">
          <mxGeometry x="400" y="70" width="150" height="30" as="geometry" />
        </mxCell>
      </root>
    </mxGraphModel>
  </diagram>
</mxfile>
